# xmcd CD database file
#
# Track frame offsets:
#	150
#	25561
#	51558
#	71481
#	95406
#	117242
#	134906
#	150635
#	157109
#	173827
#	209675
#	231016
#	245360
#
# Disc length: 3379 seconds
#
# Revision: 0
# Processed by: cddbd v1.5.2PL0 Copyright (c) Steve Scherf et al.
# Submitted via: CDex 1.70beta2
#
DISCID=b80d310d
DTITLE=Gypsophilia - Minor Hope
DYEAR=1900
DGENRE=Jazz
TTITLE0=Gyre (Alec Frith)
TTITLE1=HIV Jump (Dani Oore)
TTITLE2=Sebo Psoriatic Psongs (Dani Oore)
TTITLE3=Nicole's Song (Nick Wilkinson)
TTITLE4=Salle Verte (Nick Wilkinson, Alec Frith)
TTITLE5=Will You Come on a Picnic? (Danny Oore)
TTITLE6=Special Shoes (Nick Wilkinson)
TTITLE7=kfeetz kfotz (Dani Oore)
TTITLE8=Vulnerable (Dany Oore)
TTITLE9=Minor Hope (Dani Oore)
TTITLE10={Mental} - {Joy Theme}  (Daniel Oore - Danny Oore)
TTITLE11=Ocelot (Dani Oore)
TTITLE12=Gypsophilia - A Suitcase Waltz (Adam Fine, Nick Wilkinson, Ross Burns, Alec Frith, Sageev Oore)
EXTD=
EXTT0=
EXTT1=
EXTT2=
EXTT3=
EXTT4=
EXTT5=
EXTT6=
EXTT7=
EXTT8=
EXTT9=
EXTT10=
EXTT11=
EXTT12=
PLAYORDER=
